<?xml version="1.0" standalone="no"?>
<!DOCTYPE svg PUBLIC "-//W3C//DTD SVG 20010904//EN"
 "http://www.w3.org/TR/2001/REC-SVG-20010904/DTD/svg10.dtd">
<svg version="1.0" xmlns="http://www.w3.org/2000/svg"
 width="32.000000pt" height="32.000000pt" viewBox="0 0 32.000000 32.000000"
 preserveAspectRatio="xMidYMid meet">

<g transform="translate(0.000000,32.000000) scale(0.100000,-0.100000)"
fill="#fff" stroke="none">
<path d="M40 200 c0 -73 2 -80 20 -80 13 0 20 -7 20 -20 0 -13 7 -20 20 -20
15 0 20 -7 20 -26 l0 -25 33 25 c25 19 46 26 80 26 l47 0 0 80 c0 73 -2 80
-20 80 -13 0 -20 7 -20 20 0 19 -7 20 -100 20 l-100 0 0 -80z m180 50 c0 -6
-30 -10 -70 -10 l-70 0 0 -50 c0 -27 -4 -50 -10 -50 -6 0 -10 27 -10 60 l0 60
80 0 c47 0 80 -4 80 -10z m40 -90 l0 -60 -42 0 c-24 0 -49 -7 -60 -17 -17 -15
-18 -15 -18 0 0 10 -8 17 -20 17 -18 0 -20 7 -20 60 l0 60 80 0 80 0 0 -60z"/>
<path d="M130 180 c0 -5 23 -10 50 -10 28 0 50 5 50 10 0 6 -22 10 -50 10 -27
0 -50 -4 -50 -10z"/>
<path d="M130 140 c0 -5 14 -10 30 -10 17 0 30 5 30 10 0 6 -13 10 -30 10 -16
0 -30 -4 -30 -10z"/>
</g>
</svg>
